[Header]
FileType HTR
DataType HTRS
FileVersion 1
NumSegments 22
NumFrames 6
DataFrameRate 24
EulerRotationOrder ZYX
CalibrationUnits mm
RotationUnits Degrees
GlobalAxisofGravity Y
BoneLengthAxis Y
ScaleFactor 1.0
[SegmentNames&Hierarchy]
reference	GLOBAL
Hips	reference
Spine	Hips
Spine1	Spine
Neck	Spine1
Head	Neck
LeftShoulder	Spine1
LeftArm	LeftShoulder
LeftForeArm	LeftArm
LeftHand	LeftForeArm
RightShoulder	Spine1
RightArm	RightShoulder
RightForeArm	RightArm
RightHand	RightForeArm
LeftUpLeg	Hips
LeftLeg	LeftUpLeg
LeftFoot	LeftLeg
LeftToeBase	LeftFoot
RightUpLeg	Hips
RightLeg	RightUpLeg
RightFoot	RightLeg
RightToeBase	RightFoot
[BasePosition]
reference	0	0	0	0	0	0	1
Hips	0	0	0	0	0	0	1
Spine	0	0	0	0	-0	90	1
Spine1	0	0	0	0	0	0	1
Neck	0	0	0	-7.352430803	-7.352430803	90	1
Head	0	0	0	0	-0	90	1
LeftShoulder	0	0	0	0	0	0	1
LeftArm	0	0	0	0	0	0	1
LeftForeArm	0	0	0	0	0	0	1
LeftHand	0	0	0	0	0	0	1
RightShoulder	0	0	0	0	-0	180	1
RightArm	0	0	0	0	-0	180	1
RightForeArm	0	0	0	0	-0	180	1
RightHand	0	0	0	0	-0	180	1
LeftUpLeg	0	0	0	0	-0	-90	1
LeftLeg	0	0	0	0	-0	-90	1
LeftFoot	0	0	0	66.57150701	-66.57150701	-90	1
LeftToeBase	0	0	0	0	-90	0	1
RightUpLeg	0	0	0	0	-0	-90	1
RightLeg	0	0	0	0	-0	-90	1
RightFoot	0	0	0	66.57150701	-66.57150701	-90	1
RightToeBase	0	0	0	0	-90	0	1
[reference]
38	0	0	0	0	-0	0	1.0
39	0	0	0	0	-0	0	1.0
40	0	0	0	0	-0	0	1.0
41	0	0	0	0	-0	0	1.0
42	0	0	0	0	-0	0	1.0
43	0	0	0	0	-0	0	1.0
[Hips]
38	5.46584177	8.605135918	-1.035797119	175.6608429	-110.0343628	-180.1158752	1.0
39	5.734618187	8.561523438	-1.084822655	176.1452179	-109.8994827	-180.1470795	1.0
40	6.062881947	8.514451027	-1.138669133	176.4039612	-109.6237335	-179.4913788	1.0
41	6.457981586	8.417111397	-1.220680594	178.2798462	-109.0310211	-179.8524323	1.0
42	6.896087646	8.249884605	-1.33393538	181.1843872	-108.2514038	-180.8551483	1.0
43	7.305369854	8.11074543	-1.434350014	180.6799927	-108.2624512	-178.8393097	1.0
[Spine]
38	0	0.7478299737	0	-2.968054056	-4.851675034	-90.46308899	1.0
39	0	0.7478299737	0	-3.041150808	-5.436172485	-91.09487152	1.0
40	0	0.7478299737	0	-2.567528009	-5.867955208	-91.83747101	1.0
41	0	0.7478299737	0	-1.802894115	-5.764399529	-92.42301941	1.0
42	0	0.7478299737	0	-0.8506396413	-5.214375973	-92.97198486	1.0
43	0	0.7478299737	0	-0.6929006577	-4.665692329	-93.76763153	1.0
[Spine1]
38	0	2.049309969	0	6.675373554	-1.67660284	1.237500906	1.0
39	0	2.049309969	0	6.299100399	-1.891940594	1.408290386	1.0
40	0	2.049309969	0	5.198079109	-2.018767834	1.766780138	1.0
41	0	2.049309969	0	3.91697669	-1.996332765	2.558947802	1.0
42	0	2.049309969	0	3.034771919	-1.813003778	3.26913166	1.0
43	0	2.049309969	0	3.937336922	-1.61105454	2.948479414	1.0
[Neck]
38	0	2.231709957	0	-7.280347347	13.12598324	-86.93733978	1.0
39	0	2.231709957	0	-7.047632217	13.44522285	-85.99532318	1.0
40	0	2.231709957	0	-7.059146881	13.77647877	-85.29452515	1.0
41	0	2.231709957	0	-8.368330956	13.96150017	-85.07019806	1.0
42	0	2.231709957	0	-10.61288261	14.18227291	-84.49372101	1.0
43	0	2.231709957	0	-13.55561256	14.08580017	-84.56411743	1.0
[Head]
38	0	1.413589954	0.1823999882	-7.343706131	6.047606945	-91.94197845	1.0
39	0	1.413589954	0.1823999882	-7.208992958	6.465949059	-93.16040802	1.0
40	0	1.413589954	0.1823999882	-7.37417984	6.855918884	-94.0017395	1.0
41	0	1.413589954	0.1823999882	-7.357594967	7.038370609	-94.58492279	1.0
42	0	1.413589954	0.1823999882	-8.20192337	7.20042038	-95.91036987	1.0
43	0	1.413589954	0.1823999882	-9.414974213	6.905780792	-95.89994812	1.0
[LeftShoulder]
38	0.3649300039	1.825889945	-0.04271000251	-14.63341522	-9.083854675	6.944351673	1.0
39	0.3649300039	1.825889945	-0.04271000251	-14.624259	-9.388953209	7.303618431	1.0
40	0.3649300039	1.825889945	-0.04271000251	-13.09354973	-8.19653511	6.974251747	1.0
41	0.3649300039	1.825889945	-0.04271000251	-13.11241913	-8.65202713	6.609556198	1.0
42	0.3649300039	1.825889945	-0.04271000251	-13.79206944	-8.96446991	6.195390701	1.0
43	0.3649300039	1.825889945	-0.04271000251	-14.7749567	-9.629083633	4.971837997	1.0
[LeftArm]
38	1.24003005	0	0	61.17705536	-8.074970245	-74.17966461	1.0
39	1.24003005	0	0	62.42533493	-9.312822342	-73.58016968	1.0
40	1.24003005	0	0	64.82001495	-12.07819271	-74.17861938	1.0
41	1.24003005	0	0	66.1835022	-11.60469627	-75.31933594	1.0
42	1.24003005	0	0	65.44532776	-9.983819962	-76.64702606	1.0
43	1.24003005	0	0	64.94297028	-7.485925198	-78.36201477	1.0
[LeftForeArm]
38	2.847419977	0	0	14.66927814	-81.24269104	-12.99982929	1.0
39	2.847419977	0	0	25.60050583	-84.79006195	-22.86475754	1.0
40	2.847419977	0	0	23.58461952	-83.77729034	-21.35341835	1.0
41	2.847419977	0	0	10.56443214	-79.93806458	-9.060624123	1.0
42	2.847419977	0	0	5.798203945	-73.33000183	-4.980091572	1.0
43	2.847419977	0	0	-1.043745875	-62.02635193	2.308488607	1.0
[LeftHand]
38	2.258270025	0	0	3.209017992	-12.05792618	2.777956009	1.0
39	2.258270025	0	0	4.348005772	-11.48289299	3.283951998	1.0
40	2.258270025	0	0	4.02657795	-11.73296928	3.471675873	1.0
41	2.258270025	0	0	2.749742985	-11.88190651	1.925781369	1.0
42	2.258270025	0	0	2.129838467	-11.74992085	-0.4026302695	1.0
43	2.258270025	0	0	0.4995396435	-12.49378681	-1.426966906	1.0
[RightShoulder]
38	-0.3646599948	1.825889945	-0.04271000251	-4.538482666	7.440015793	173.6407318	1.0
39	-0.3646599948	1.825889945	-0.04271000251	-4.870471954	6.583405495	173.342926	1.0
40	-0.3646599948	1.825889945	-0.04271000251	-5.094797611	6.116496086	173.4678192	1.0
41	-0.3646599948	1.825889945	-0.04271000251	-5.428717136	6.101304054	173.7156372	1.0
42	-0.3646599948	1.825889945	-0.04271000251	-5.1982584	6.51143837	174.7863617	1.0
43	-0.3646599948	1.825889945	-0.04271000251	-5.599056244	6.539960861	176.3430176	1.0
[RightArm]
38	-1.24003005	0	0	18.02860069	-18.56227112	-113.7264023	1.0
39	-1.24003005	0	0	14.86688614	-19.0503788	-114.4821243	1.0
40	-1.24003005	0	0	15.05485058	-18.06418991	-114.3079529	1.0
41	-1.24003005	0	0	17.1961422	-16.33661842	-113.350029	1.0
42	-1.24003005	0	0	20.33128357	-13.41399288	-112.2906799	1.0
43	-1.24003005	0	0	24.7567234	-9.01539135	-110.4594116	1.0
[RightForeArm]
38	-2.847419977	0	0	13.90087795	9.906539917	190.9241028	1.0
39	-2.847419977	0	0	14.99196529	8.256612778	190.978241	1.0
40	-2.847419977	0	0	14.50967407	6.353907108	190.2927856	1.0
41	-2.847419977	0	0	13.55714321	5.54207325	189.582962	1.0
42	-2.847419977	0	0	12.65587807	6.180726051	188.8115082	1.0
43	-2.847419977	0	0	10.30562878	6.501909256	187.9398193	1.0
[RightHand]
38	-2.258270025	0	0	12.86440945	3.101516962	176.7845764	1.0
39	-2.258270025	0	0	14.15691185	2.096735477	177.9377441	1.0
40	-2.258270025	0	0	13.91238594	1.213472605	177.6709595	1.0
41	-2.258270025	0	0	13.07246685	0.8155119419	177.2214355	1.0
42	-2.258270025	0	0	12.16568565	1.255391359	178.7381592	1.0
43	-2.258270025	0	0	9.838607788	2.254063368	179.2242432	1.0
[LeftUpLeg]
38	0.9119900465	0	0	1.368035316	2.483163834	91.02852631	1.0
39	0.9119900465	0	0	4.025924683	2.263803005	90.35601807	1.0
40	0.9119900465	0	0	5.374308586	4.175652981	90.11629486	1.0
41	0.9119900465	0	0	3.206165791	4.056633949	89.77082825	1.0
42	0.9119900465	0	0	-2.543969393	2.153027773	90.09351349	1.0
43	0.9119900465	0	0	-8.782424927	2.941481113	88.91721344	1.0
[LeftLeg]
38	0	-4.371409893	0	46.03330231	1.960395098	86.08190155	1.0
39	0	-4.371409893	0	42.54362869	-0.2450877428	85.9105072	1.0
40	0	-4.371409893	0	36.87436676	-0.3694721758	87.19709778	1.0
41	0	-4.371409893	0	34.97974014	-2.37268877	87.50564575	1.0
42	0	-4.371409893	0	38.573246	-5.252655506	82.42341614	1.0
43	0	-4.371409893	0	43.75217056	-6.532538414	78.96430206	1.0
[LeftFoot]
38	0	-3.918009996	0	-80.32705688	100.978035	-31.73601913	1.0
39	0	-3.918009996	0	-79.35987091	101.6750946	-31.45118332	1.0
40	0	-3.918009996	0	-87.85272217	101.6334	-38.82424164	1.0
41	0	-3.918009996	0	-118.7182846	99.39689636	-64.73152924	1.0
42	0	-3.918009996	0	-108.5716171	103.1826019	-45.62026596	1.0
43	0	-3.918009996	0	-98.00634766	108.8983459	-28.14400864	1.0
[LeftToeBase]
38	0	-0.5927900076	1.367989898	0	0	0	1.0
39	0	-0.5927900076	1.367989898	0	0	0	1.0
40	0	-0.5927900076	1.367989898	0	0	0	1.0
41	0	-0.5927900076	1.367989898	0	0	0	1.0
42	0	-0.5927900076	1.367989898	0	0	0	1.0
43	0	-0.5927900076	1.367989898	0	0	0	1.0
[RightUpLeg]
38	-0.9119900465	0	0	-2.845303535	-7.942684174	93.91994476	1.0
39	-0.9119900465	0	0	-3.836192608	-6.728240967	93.18152618	1.0
40	-0.9119900465	0	0	-6.753190994	-6.107699394	93.15951538	1.0
41	-0.9119900465	0	0	-12.6635294	-5.820669651	94.51404572	1.0
42	-0.9119900465	0	0	-20.73766899	-5.110681534	96.52429962	1.0
43	-0.9119900465	0	0	-26.91536331	-4.421592236	96.36876678	1.0
[RightLeg]
38	0	-4.371409893	0	6.262441635	0.8098504543	90.54363251	1.0
39	0	-4.371409893	0	3.5683465	-0.2398232073	91.31716919	1.0
40	0	-4.371409893	0	3.163608074	-0.8019096851	90.94039154	1.0
41	0	-4.371409893	0	6.007384777	-1.247057438	88.59514618	1.0
42	0	-4.371409893	0	11.87949753	-0.7538281679	85.66464233	1.0
43	0	-4.371409893	0	16.22412491	-0.5830566883	84.55917358	1.0
[RightFoot]
38	0	-3.918009996	0	19.80061722	65.38328552	55.21759796	1.0
39	0	-3.918009996	0	22.82557487	65.56973267	55.72830963	1.0
40	0	-3.918009996	0	25.57828903	65.49794769	56.95658875	1.0
41	0	-3.918009996	0	28.76418304	66.08001709	60.48369217	1.0
42	0	-3.918009996	0	29.72145081	66.4236145	63.09412384	1.0
43	0	-3.918009996	0	28.27467346	66.99737549	64.54103088	1.0
[RightToeBase]
38	0	-0.5927900076	1.367989898	0	0	0	1.0
39	0	-0.5927900076	1.367989898	0	0	0	1.0
40	0	-0.5927900076	1.367989898	0	0	0	1.0
41	0	-0.5927900076	1.367989898	0	0	0	1.0
42	0	-0.5927900076	1.367989898	0	0	0	1.0
43	0	-0.5927900076	1.367989898	0	0	0	1.0
[EndOfFile]
